<svg width="239" height="165" viewBox="0 0 239 165" fill="none" xmlns="http://www.w3.org/2000/svg">
<path fill-rule="evenodd" clip-rule="evenodd" d="M184.248 135.75C208.32 106.191 206.953 63.1501 180 36.162C151.206 7.33168 104.117 7.73738 74.8241 37.0681C45.6135 66.316 45.1283 113.282 73.9144 142.373L73.9193 142.378L74.6872 143.544C75.1948 144.82 74.9223 146.345 73.8762 147.393C72.5161 148.755 70.3508 148.807 68.8728 147.441L68.8629 147.431L63.3295 141.29C37.5116 109.474 39.7832 62.2106 69.8588 32.0965C101.942 -0.0276658 153.515 -0.47197 185.051 31.1041C216.586 62.68 216.143 114.319 184.06 146.443L182.881 147.233C181.641 147.745 180.181 147.532 179.056 146.492L179.046 146.482C177.682 145.002 177.735 142.834 179.094 141.472L184.248 135.75Z" fill="#D8D8D8"/>
<path fill-rule="evenodd" clip-rule="evenodd" d="M121.116 89.5731C121.116 86.1774 123.869 83.4246 127.265 83.4246C130.66 83.4246 133.413 86.1774 133.413 89.5731C133.413 92.9688 130.66 95.7215 127.265 95.7215C123.869 95.7215 121.116 92.9688 121.116 89.5731Z" stroke="#244351"/>
<g filter="url(#filter0_d_0:1134)">
<path fill-rule="evenodd" clip-rule="evenodd" d="M127.265 94.492C124.548 94.492 122.346 92.2898 122.346 89.5732C122.346 86.8567 124.548 84.6544 127.265 84.6544C129.981 84.6544 132.183 86.8567 132.183 89.5732C132.183 92.2898 129.981 94.492 127.265 94.492Z" fill="#5458F7"/>
</g>
<path opacity="0.8" fill-rule="evenodd" clip-rule="evenodd" d="M114.968 89.5731C114.968 82.7817 120.473 77.2762 127.265 77.2762C134.056 77.2762 139.561 82.7817 139.561 89.5731C139.561 96.3645 134.056 101.87 127.265 101.87C120.473 101.87 114.968 96.3645 114.968 89.5731Z" stroke="#244351"/>
<path opacity="0.5" fill-rule="evenodd" clip-rule="evenodd" d="M108.819 89.5782C108.819 79.3883 117.078 71.1278 127.265 71.1278C137.452 71.1278 145.71 79.3883 145.71 89.5782C145.71 99.768 137.452 108.029 127.265 108.029C117.078 108.029 108.819 99.768 108.819 89.5782Z" stroke="#244351"/>
<path opacity="0.3" fill-rule="evenodd" clip-rule="evenodd" d="M102.671 89.5782C102.671 75.9927 113.684 64.9794 127.27 64.9794C140.855 64.9794 151.868 75.9927 151.868 89.5782C151.868 103.164 140.855 114.177 127.27 114.177C113.684 114.177 102.671 103.164 102.671 89.5782Z" stroke="#244351"/>
<path opacity="0.1" fill-rule="evenodd" clip-rule="evenodd" d="M96.5225 89.5781C96.5225 72.5968 110.288 58.8308 127.27 58.8308C144.251 58.8308 158.017 72.5968 158.017 89.5781C158.017 106.559 144.251 120.325 127.27 120.325C110.288 120.325 96.5225 106.559 96.5225 89.5781Z" stroke="#244351"/>
<path opacity="0.1" fill-rule="evenodd" clip-rule="evenodd" d="M90.3738 89.5781C90.3738 69.2012 106.893 52.6824 127.27 52.6824C147.646 52.6824 164.165 69.2012 164.165 89.5781C164.165 109.955 147.646 126.474 127.27 126.474C106.893 126.474 90.3738 109.955 90.3738 89.5781Z" stroke="#244351"/>
<path opacity="0.1" fill-rule="evenodd" clip-rule="evenodd" d="M84.2254 89.5782C84.2254 65.8055 103.497 46.534 127.27 46.534C151.042 46.534 170.314 65.8055 170.314 89.5782C170.314 113.351 151.042 132.622 127.27 132.622C103.497 132.622 84.2254 113.351 84.2254 89.5782Z" stroke="#244351"/>
<path opacity="0.05" fill-rule="evenodd" clip-rule="evenodd" d="M78.077 89.5782C78.077 62.4099 100.101 40.3856 127.27 40.3856C154.438 40.3856 176.462 62.4099 176.462 89.5782C176.462 116.747 154.438 138.771 127.27 138.771C100.101 138.771 78.077 116.747 78.077 89.5782Z" stroke="#244351"/>
<path d="M117.427 99.7254L167.549 49.6031" stroke="#5458F7" stroke-width="2" stroke-linecap="round"/>
<path d="M2.763 157.054C2.295 157.054 1.845 156.979 1.413 156.829C0.987 156.679 0.657 156.481 0.423 156.235L0.684 155.722C0.912 155.95 1.215 156.136 1.593 156.28C1.971 156.418 2.361 156.487 2.763 156.487C3.327 156.487 3.75 156.385 4.032 156.181C4.314 155.971 4.455 155.701 4.455 155.371C4.455 155.119 4.377 154.918 4.221 154.768C4.071 154.618 3.885 154.504 3.663 154.426C3.441 154.342 3.132 154.252 2.736 154.156C2.262 154.036 1.884 153.922 1.602 153.814C1.32 153.7 1.077 153.529 0.873 153.301C0.675 153.073 0.576 152.764 0.576 152.374C0.576 152.056 0.66 151.768 0.828 151.51C0.996 151.246 1.254 151.036 1.602 150.88C1.95 150.724 2.382 150.646 2.898 150.646C3.258 150.646 3.609 150.697 3.951 150.799C4.299 150.895 4.599 151.03 4.851 151.204L4.626 151.735C4.362 151.561 4.08 151.432 3.78 151.348C3.48 151.258 3.186 151.213 2.898 151.213C2.346 151.213 1.929 151.321 1.647 151.537C1.371 151.747 1.233 152.02 1.233 152.356C1.233 152.608 1.308 152.812 1.458 152.968C1.614 153.118 1.806 153.235 2.034 153.319C2.268 153.397 2.58 153.484 2.97 153.58C3.432 153.694 3.804 153.808 4.086 153.922C4.374 154.03 4.617 154.198 4.815 154.426C5.013 154.648 5.112 154.951 5.112 155.335C5.112 155.653 5.025 155.944 4.851 156.208C4.683 156.466 4.422 156.673 4.068 156.829C3.714 156.979 3.279 157.054 2.763 157.054ZM8.86711 152.23C9.31111 152.23 9.71311 152.332 10.0731 152.536C10.4331 152.734 10.7151 153.016 10.9191 153.382C11.1231 153.748 11.2251 154.165 11.2251 154.633C11.2251 155.107 11.1231 155.527 10.9191 155.893C10.7151 156.259 10.4331 156.544 10.0731 156.748C9.71911 156.946 9.31711 157.045 8.86711 157.045C8.48311 157.045 8.13511 156.967 7.82311 156.811C7.51711 156.649 7.26511 156.415 7.06711 156.109V158.746H6.42811V152.266H7.04011V153.202C7.23211 152.89 7.48411 152.65 7.79611 152.482C8.11411 152.314 8.47111 152.23 8.86711 152.23ZM8.82211 156.478C9.15211 156.478 9.45211 156.403 9.72211 156.253C9.99211 156.097 10.2021 155.878 10.3521 155.596C10.5081 155.314 10.5861 154.993 10.5861 154.633C10.5861 154.273 10.5081 153.955 10.3521 153.679C10.2021 153.397 9.99211 153.178 9.72211 153.022C9.45211 152.866 9.15211 152.788 8.82211 152.788C8.48611 152.788 8.18311 152.866 7.91311 153.022C7.64911 153.178 7.43911 153.397 7.28311 153.679C7.13311 153.955 7.05811 154.273 7.05811 154.633C7.05811 154.993 7.13311 155.314 7.28311 155.596C7.43911 155.878 7.64911 156.097 7.91311 156.253C8.18311 156.403 8.48611 156.478 8.82211 156.478ZM16.6497 154.831H12.6897C12.7257 155.323 12.9147 155.722 13.2567 156.028C13.5987 156.328 14.0307 156.478 14.5527 156.478C14.8467 156.478 15.1167 156.427 15.3627 156.325C15.6087 156.217 15.8217 156.061 16.0017 155.857L16.3617 156.271C16.1517 156.523 15.8877 156.715 15.5697 156.847C15.2577 156.979 14.9127 157.045 14.5347 157.045C14.0487 157.045 13.6167 156.943 13.2387 156.739C12.8667 156.529 12.5757 156.241 12.3657 155.875C12.1557 155.509 12.0507 155.095 12.0507 154.633C12.0507 154.171 12.1497 153.757 12.3477 153.391C12.5517 153.025 12.8277 152.74 13.1757 152.536C13.5297 152.332 13.9257 152.23 14.3637 152.23C14.8017 152.23 15.1947 152.332 15.5427 152.536C15.8907 152.74 16.1637 153.025 16.3617 153.391C16.5597 153.751 16.6587 154.165 16.6587 154.633L16.6497 154.831ZM14.3637 152.779C13.9077 152.779 13.5237 152.926 13.2117 153.22C12.9057 153.508 12.7317 153.886 12.6897 154.354H16.0467C16.0047 153.886 15.8277 153.508 15.5157 153.22C15.2097 152.926 14.8257 152.779 14.3637 152.779ZM19.9214 157.045C19.4534 157.045 19.0334 156.943 18.6614 156.739C18.2954 156.535 18.0074 156.25 17.7974 155.884C17.5874 155.512 17.4824 155.095 17.4824 154.633C17.4824 154.171 17.5874 153.757 17.7974 153.391C18.0074 153.025 18.2954 152.74 18.6614 152.536C19.0334 152.332 19.4534 152.23 19.9214 152.23C20.3294 152.23 20.6924 152.311 21.0104 152.473C21.3344 152.629 21.5894 152.86 21.7754 153.166L21.2984 153.49C21.1424 153.256 20.9444 153.082 20.7044 152.968C20.4644 152.848 20.2034 152.788 19.9214 152.788C19.5794 152.788 19.2704 152.866 18.9944 153.022C18.7244 153.172 18.5114 153.388 18.3554 153.67C18.2054 153.952 18.1304 154.273 18.1304 154.633C18.1304 154.999 18.2054 155.323 18.3554 155.605C18.5114 155.881 18.7244 156.097 18.9944 156.253C19.2704 156.403 19.5794 156.478 19.9214 156.478C20.2034 156.478 20.4644 156.421 20.7044 156.307C20.9444 156.193 21.1424 156.019 21.2984 155.785L21.7754 156.109C21.5894 156.415 21.3344 156.649 21.0104 156.811C20.6864 156.967 20.3234 157.045 19.9214 157.045ZM23.0306 152.266H23.6696V157H23.0306V152.266ZM23.3546 151.231C23.2226 151.231 23.1116 151.186 23.0216 151.096C22.9316 151.006 22.8866 150.898 22.8866 150.772C22.8866 150.652 22.9316 150.547 23.0216 150.457C23.1116 150.367 23.2226 150.322 23.3546 150.322C23.4866 150.322 23.5976 150.367 23.6876 150.457C23.7776 150.541 23.8226 150.643 23.8226 150.763C23.8226 150.895 23.7776 151.006 23.6876 151.096C23.5976 151.186 23.4866 151.231 23.3546 151.231ZM27.0136 150.817C26.7376 150.817 26.5276 150.892 26.3836 151.042C26.2456 151.192 26.1766 151.414 26.1766 151.708V152.266H27.6346V152.806H26.1946V157H25.5556V152.806H24.7096V152.266H25.5556V151.681C25.5556 151.249 25.6786 150.907 25.9246 150.655C26.1766 150.403 26.5306 150.277 26.9866 150.277C27.1666 150.277 27.3406 150.304 27.5086 150.358C27.6766 150.406 27.8176 150.478 27.9316 150.574L27.7156 151.051C27.5296 150.895 27.2956 150.817 27.0136 150.817ZM29.2186 152.266H29.8576V157H29.2186V152.266ZM29.5426 151.231C29.4106 151.231 29.2996 151.186 29.2096 151.096C29.1196 151.006 29.0746 150.898 29.0746 150.772C29.0746 150.652 29.1196 150.547 29.2096 150.457C29.2996 150.367 29.4106 150.322 29.5426 150.322C29.6746 150.322 29.7856 150.367 29.8756 150.457C29.9656 150.541 30.0106 150.643 30.0106 150.763C30.0106 150.895 29.9656 151.006 29.8756 151.096C29.7856 151.186 29.6746 151.231 29.5426 151.231ZM33.6059 157.045C33.1379 157.045 32.7179 156.943 32.3459 156.739C31.9799 156.535 31.6919 156.25 31.4819 155.884C31.2719 155.512 31.1669 155.095 31.1669 154.633C31.1669 154.171 31.2719 153.757 31.4819 153.391C31.6919 153.025 31.9799 152.74 32.3459 152.536C32.7179 152.332 33.1379 152.23 33.6059 152.23C34.0139 152.23 34.3769 152.311 34.6949 152.473C35.0189 152.629 35.2739 152.86 35.4599 153.166L34.9829 153.49C34.8269 153.256 34.6289 153.082 34.3889 152.968C34.1489 152.848 33.8879 152.788 33.6059 152.788C33.2639 152.788 32.9549 152.866 32.6789 153.022C32.4089 153.172 32.1959 153.388 32.0399 153.67C31.8899 153.952 31.8149 154.273 31.8149 154.633C31.8149 154.999 31.8899 155.323 32.0399 155.605C32.1959 155.881 32.4089 156.097 32.6789 156.253C32.9549 156.403 33.2639 156.478 33.6059 156.478C33.8879 156.478 34.1489 156.421 34.3889 156.307C34.6289 156.193 34.8269 156.019 34.9829 155.785L35.4599 156.109C35.2739 156.415 35.0189 156.649 34.6949 156.811C34.3709 156.967 34.0079 157.045 33.6059 157.045Z" fill="#8998AC"/>
<path d="M215.995 160.751C216.409 160.841 216.727 161.021 216.949 161.291C217.177 161.555 217.291 161.897 217.291 162.317C217.291 162.857 217.09 163.274 216.688 163.568C216.292 163.856 215.704 164 214.924 164H212.026V157.7H214.744C215.446 157.7 215.989 157.841 216.373 158.123C216.763 158.405 216.958 158.804 216.958 159.32C216.958 159.668 216.871 159.965 216.697 160.211C216.529 160.451 216.295 160.631 215.995 160.751ZM212.692 158.249V160.535H214.699C215.209 160.535 215.602 160.439 215.878 160.247C216.154 160.049 216.292 159.764 216.292 159.392C216.292 159.02 216.154 158.738 215.878 158.546C215.602 158.348 215.209 158.249 214.699 158.249H212.692ZM214.915 163.451C215.479 163.451 215.905 163.355 216.193 163.163C216.481 162.971 216.625 162.671 216.625 162.263C216.625 161.477 216.055 161.084 214.915 161.084H212.692V163.451H214.915ZM219.288 160.193C219.438 159.875 219.66 159.635 219.954 159.473C220.254 159.311 220.623 159.23 221.061 159.23V159.851L220.908 159.842C220.41 159.842 220.02 159.995 219.738 160.301C219.456 160.607 219.315 161.036 219.315 161.588V164H218.676V159.266H219.288V160.193ZM224.109 164.045C223.653 164.045 223.242 163.943 222.876 163.739C222.51 163.529 222.222 163.241 222.012 162.875C221.802 162.509 221.697 162.095 221.697 161.633C221.697 161.171 221.802 160.757 222.012 160.391C222.222 160.025 222.51 159.74 222.876 159.536C223.242 159.332 223.653 159.23 224.109 159.23C224.565 159.23 224.976 159.332 225.342 159.536C225.708 159.74 225.993 160.025 226.197 160.391C226.407 160.757 226.512 161.171 226.512 161.633C226.512 162.095 226.407 162.509 226.197 162.875C225.993 163.241 225.708 163.529 225.342 163.739C224.976 163.943 224.565 164.045 224.109 164.045ZM224.109 163.478C224.445 163.478 224.745 163.403 225.009 163.253C225.279 163.097 225.489 162.878 225.639 162.596C225.789 162.314 225.864 161.993 225.864 161.633C225.864 161.273 225.789 160.952 225.639 160.67C225.489 160.388 225.279 160.172 225.009 160.022C224.745 159.866 224.445 159.788 224.109 159.788C223.773 159.788 223.47 159.866 223.2 160.022C222.936 160.172 222.726 160.388 222.57 160.67C222.42 160.952 222.345 161.273 222.345 161.633C222.345 161.993 222.42 162.314 222.57 162.596C222.726 162.878 222.936 163.097 223.2 163.253C223.47 163.403 223.773 163.478 224.109 163.478ZM229.446 159.23C230.064 159.23 230.538 159.386 230.868 159.698C231.198 160.004 231.363 160.46 231.363 161.066V164H230.751V163.262C230.607 163.508 230.394 163.7 230.112 163.838C229.836 163.976 229.506 164.045 229.122 164.045C228.594 164.045 228.174 163.919 227.862 163.667C227.55 163.415 227.394 163.082 227.394 162.668C227.394 162.266 227.538 161.942 227.826 161.696C228.12 161.45 228.585 161.327 229.221 161.327H230.724V161.039C230.724 160.631 230.61 160.322 230.382 160.112C230.154 159.896 229.821 159.788 229.383 159.788C229.083 159.788 228.795 159.839 228.519 159.941C228.243 160.037 228.006 160.172 227.808 160.346L227.52 159.869C227.76 159.665 228.048 159.509 228.384 159.401C228.72 159.287 229.074 159.23 229.446 159.23ZM229.221 163.541C229.581 163.541 229.89 163.46 230.148 163.298C230.406 163.13 230.598 162.89 230.724 162.578V161.804H229.239C228.429 161.804 228.024 162.086 228.024 162.65C228.024 162.926 228.129 163.145 228.339 163.307C228.549 163.463 228.843 163.541 229.221 163.541ZM237.437 157.322V164H236.825V163.064C236.633 163.382 236.378 163.625 236.06 163.793C235.748 163.961 235.394 164.045 234.998 164.045C234.554 164.045 234.152 163.943 233.792 163.739C233.432 163.535 233.15 163.25 232.946 162.884C232.742 162.518 232.64 162.101 232.64 161.633C232.64 161.165 232.742 160.748 232.946 160.382C233.15 160.016 233.432 159.734 233.792 159.536C234.152 159.332 234.554 159.23 234.998 159.23C235.382 159.23 235.727 159.311 236.033 159.473C236.345 159.629 236.6 159.86 236.798 160.166V157.322H237.437ZM235.052 163.478C235.382 163.478 235.679 163.403 235.943 163.253C236.213 163.097 236.423 162.878 236.573 162.596C236.729 162.314 236.807 161.993 236.807 161.633C236.807 161.273 236.729 160.952 236.573 160.67C236.423 160.388 236.213 160.172 235.943 160.022C235.679 159.866 235.382 159.788 235.052 159.788C234.716 159.788 234.413 159.866 234.143 160.022C233.879 160.172 233.669 160.388 233.513 160.67C233.363 160.952 233.288 161.273 233.288 161.633C233.288 161.993 233.363 162.314 233.513 162.596C233.669 162.878 233.879 163.097 234.143 163.253C234.413 163.403 234.716 163.478 235.052 163.478Z" fill="#8998AC"/>
<defs>
<filter id="filter0_d_0:1134" x="107.346" y="79.6545" width="39.8374" height="39.8374" filterUnits="userSpaceOnUse" color-interpolation-filters="sRGB">
<feFlood flood-opacity="0" result="BackgroundImageFix"/>
<feColorMatrix in="SourceAlpha" type="matrix" values="0 0 0 0 0 0 0 0 0 0 0 0 0 0 0 0 0 0 127 0" result="hardAlpha"/>
<feOffset dy="10"/>
<feGaussianBlur stdDeviation="7.5"/>
<feColorMatrix type="matrix" values="0 0 0 0 0.0352941 0 0 0 0 0.0784314 0 0 0 0 0.0941176 0 0 0 1 0"/>
<feBlend mode="normal" in2="BackgroundImageFix" result="effect1_dropShadow_0:1134"/>
<feBlend mode="normal" in="SourceGraphic" in2="effect1_dropShadow_0:1134" result="shape"/>
</filter>
</defs>
</svg>
