<svg width="40" height="28" viewBox="0 0 40 28" fill="none" xmlns="http://www.w3.org/2000/svg">
<path fill-rule="evenodd" clip-rule="evenodd" d="M30.1823 18.5987C29.8987 19.025 29.3419 19.1723 28.8844 18.9426C28.8091 18.8784 28.7287 18.8193 28.6443 18.7674L25.3542 16.6453C25.2899 16.6012 25.2205 16.5662 25.1465 16.5415C24.8019 16.4429 24.4424 16.6427 24.3444 16.9873C24.2814 17.208 24.3392 17.4455 24.4975 17.6123C24.6007 17.6888 24.7117 17.7537 24.8285 17.8069L28.0732 19.955H28.1122C28.4366 20.2872 28.4853 20.8005 28.229 21.1879C27.9207 21.6266 27.327 21.7538 26.8662 21.48L26.4379 21.2074C26.3626 21.1393 26.2822 21.0763 26.1978 21.0192L25.3477 20.4676L23.4008 19.2022C23.1516 19.0477 22.8298 19.0795 22.6156 19.28C22.5903 19.2976 22.5663 19.317 22.5442 19.3384C22.5274 19.3631 22.5118 19.3891 22.4988 19.4163C22.4703 19.4566 22.4462 19.5 22.4274 19.5461C22.4235 19.587 22.4235 19.6285 22.4274 19.6694C22.4028 19.7343 22.4028 19.8057 22.4274 19.8706C22.4229 19.9141 22.4229 19.9575 22.4274 20.0004C22.4449 20.0302 22.4644 20.0581 22.4858 20.0847C22.5072 20.1263 22.5339 20.1659 22.5637 20.2015C22.6585 20.2924 22.7629 20.3735 22.8752 20.4417L25.6527 22.2392C25.9804 22.5669 26.0317 23.0796 25.776 23.4657C25.4716 23.9135 24.87 24.0446 24.4067 23.7643L23.5631 23.2127H23.4917C23.3892 23.1166 23.2788 23.0297 23.1607 22.9531L21.6941 22.0121C21.4034 21.8025 20.9978 21.8687 20.7882 22.1594C20.5786 22.4501 20.6448 22.8557 20.9355 23.0653C20.9543 23.0783 20.9731 23.0913 20.9933 23.1023L22.4599 24.0433C22.9193 24.3399 23.053 24.9518 22.7584 25.4126C22.4482 25.8513 21.8538 25.9811 21.3891 25.7111L20.3119 25.0167C20.6889 24.1699 20.5202 23.1796 19.8836 22.5053C19.6201 22.2256 19.2898 22.0179 18.9231 21.9018C19.099 21.5922 19.1989 21.2451 19.2152 20.8894C19.2658 19.6292 18.2852 18.5656 17.025 18.5149C16.7278 18.5033 16.4312 18.5493 16.1521 18.6506C16.0639 18.2424 15.8666 17.8654 15.5811 17.5603C14.7472 16.6726 13.361 16.6012 12.4402 17.3981C12.3376 17.062 12.1605 16.7537 11.921 16.4961C11.0657 15.5785 9.62829 15.5285 8.71068 16.3838L8.70873 16.3858L7.87808 17.158L6.8852 16.5091L11.6225 9.14353L12.5375 7.72234L15.3539 7.61851H15.4643L15.7044 7.58606L13.2968 8.9748C12.0424 9.70227 11.6154 11.3091 12.3428 12.5635C13.0703 13.8179 14.6771 14.2449 15.9315 13.5174L19.916 11.0255C20.5163 10.6478 21.2931 10.7055 21.8304 11.1682L24.8999 13.764C25.3217 14.1209 25.7241 14.4454 26.1394 14.7504C26.678 15.1528 27.2296 15.5356 27.7747 15.8796L29.8449 17.1775H29.8903C30.3536 17.4636 30.4977 18.0717 30.2115 18.5351C30.2018 18.55 30.192 18.5649 30.1823 18.5792L30.1823 18.5987ZM16.5025 25.6722C16.1352 25.2796 16.1554 24.6637 16.548 24.2964L16.866 23.9979L17.5603 23.349C17.7368 23.1848 17.9679 23.092 18.2093 23.0894H18.2417C18.511 23.0998 18.7641 23.2192 18.9426 23.4203C19.3099 23.8129 19.2898 24.4288 18.8971 24.7961L17.9043 25.7241C17.5071 26.092 16.8874 26.0687 16.5194 25.6715L16.5025 25.6527L16.5025 25.6722ZM12.9528 24.4976C12.5855 24.105 12.6056 23.4891 12.9982 23.1218L15.01 21.2464L16.256 20.0848C16.4325 19.9206 16.6635 19.8278 16.9049 19.8252H16.9373C17.2067 19.8356 17.4597 19.955 17.6382 20.1561C18.0055 20.5487 17.9854 21.1646 17.5928 21.5319L15.9834 22.9985L15.6654 23.297L14.3675 24.517C13.9827 24.8973 13.3623 24.8934 12.982 24.5086C12.9716 24.4989 12.9626 24.4885 12.9528 24.4781L12.9528 24.4976ZM10.4609 23.3295C10.1916 23.3191 9.93846 23.1997 9.76 22.9985C9.3927 22.6059 9.41281 21.9901 9.80543 21.6228L10.5063 20.9738L11.8042 19.7408L13.2254 18.4429C13.4012 18.2781 13.6329 18.1853 13.8743 18.1833C14.156 18.1859 14.4246 18.306 14.6141 18.5143C14.9814 18.9069 14.9613 19.5228 14.5687 19.8901L13.3552 21.0257L12.0573 22.2133L11.1033 23.1023C10.919 23.2432 10.6925 23.3165 10.4609 23.31V23.3295ZM7.74827 19.4358C7.76449 19.1873 7.87611 18.9549 8.05976 18.7869L8.38423 18.4819L9.58478 17.3657C9.76129 17.2015 9.99232 17.1087 10.2337 17.1061H10.2662C10.5355 17.1165 10.7886 17.2359 10.967 17.4371C11.3343 17.8297 11.3142 18.4455 10.9216 18.8128L9.40307 20.208C9.00916 20.574 8.39331 20.552 8.02731 20.1581L8.00784 20.1367C7.83068 19.9472 7.73723 19.6947 7.74826 19.4358H7.74827ZM4.75014 14.4973C4.03306 14.4973 3.45225 13.9165 3.45225 13.1994C3.45225 12.4824 4.03305 11.9015 4.75014 11.9015C5.46722 11.9015 6.04803 12.4824 6.04803 13.1994C6.04803 13.9165 5.46722 14.4973 4.75014 14.4973ZM21.6487 6.66457L26.2627 6.48286L29.7475 11.1358L32.4406 14.7374L30.3251 15.9575L28.4691 14.7569C27.9499 14.426 27.4243 14.069 26.9116 13.6862C26.5223 13.3941 26.1394 13.0891 25.737 12.7517L22.6675 10.1559C21.698 9.3259 20.3015 9.22337 19.2216 9.90281L15.2566 12.3818C14.6258 12.74 13.8237 12.5194 13.4655 11.8886C13.1073 11.2578 13.3279 10.4557 13.9587 10.0975L18.086 7.71586C19.1716 7.08314 20.3936 6.72232 21.6487 6.66457H21.6487ZM38.982 11.4668L31.1947 0.804588C30.9837 0.515158 30.5775 0.450908 30.2881 0.661818L30.2796 0.668308L25.9512 3.91304C25.5495 4.21415 25.3574 4.71903 25.458 5.21093L21.5643 5.36668C20.2015 5.43093 18.8705 5.80148 17.6706 6.45042C16.8867 6.20836 16.0554 6.16423 15.2501 6.32063L13.0437 6.405C13.021 6.00395 12.799 5.64119 12.4531 5.43807L8.00136 2.59569C7.70025 2.40165 7.29856 2.48796 7.10452 2.78907L7.09933 2.79686L0.265941 13.764C0.0771012 14.069 0.171841 14.4688 0.476201 14.6576L0.480091 14.6596L4.84749 17.3203C5.05191 17.4468 5.28812 17.5143 5.52888 17.5149C5.6684 17.511 5.80663 17.4851 5.93772 17.4371L6.9306 18.086C6.63858 18.4572 6.4705 18.9115 6.45038 19.3839C6.43481 19.9984 6.66907 20.5935 7.09932 21.0322C7.42444 21.369 7.84626 21.5961 8.30636 21.6812C7.9754 22.9064 8.70027 24.1673 9.92548 24.4976C10.0916 24.543 10.2629 24.569 10.4349 24.5755H10.5193C10.8613 24.5735 11.1987 24.4937 11.5057 24.3418C11.5991 24.7195 11.7867 25.068 12.0508 25.3542C12.8418 26.2069 14.1527 26.3166 15.0749 25.6073C15.1774 25.9486 15.3571 26.2614 15.6005 26.5223C16.4584 27.4373 17.8945 27.4866 18.8128 26.6326L19.5201 25.9837L20.7142 26.7624C21.7642 27.449 23.1717 27.1544 23.8583 26.1044C24.0601 25.7955 24.1841 25.4425 24.2185 25.0752C24.4599 25.1628 24.7143 25.2089 24.9713 25.2115C26.2335 25.2082 27.2581 24.1894 27.2685 22.9272C28.534 23.0213 29.6359 22.0719 29.73 20.8071C29.743 20.6306 29.7358 20.454 29.7086 20.2795C30.9506 20.0809 31.7969 18.9128 31.5976 17.6707C31.5535 17.3936 31.4588 17.1275 31.3179 16.8855L33.4075 15.6784C33.4997 15.7154 33.5951 15.7414 33.6931 15.7563H33.8813C34.1623 15.7563 34.4355 15.6655 34.66 15.4967L38.8457 12.3623C39.1267 12.1501 39.187 11.753 38.982 11.4668L38.982 11.4668Z" fill="#39475B"/>
</svg>
