<svg width="38" height="40" viewBox="0 0 38 40" fill="none" xmlns="http://www.w3.org/2000/svg">
<path fill-rule="evenodd" clip-rule="evenodd" d="M4.16544 27.1228H33.8838C34.4221 27.1228 34.8581 27.5588 34.8581 28.0972C34.8581 28.6355 34.4221 29.0715 33.8838 29.0715H24.3836C23.7107 29.0715 23.1657 29.6166 23.1657 30.2895V37.4755H14.8835V30.2895C14.8835 29.6166 14.3385 29.0715 13.6655 29.0715H4.16542C3.62708 29.0715 3.19105 28.6355 3.19105 28.0972C3.19105 27.5588 3.62708 27.1228 4.16542 27.1228H4.16544ZM9.28089 15.4486L10.986 17.1477C11.461 17.6196 12.2284 17.6196 12.7034 17.1477L17.1124 12.7447C18.4448 11.411 18.4448 9.24914 17.1124 7.91547L16.9967 7.80585C15.663 6.4734 13.5011 6.4734 12.1675 7.80585L11.8447 8.12861L11.5158 7.80585C10.919 7.21209 10.1219 6.86254 9.28088 6.82539V4.59042C9.28088 3.91749 9.82592 3.37245 10.4988 3.37245H12.9835V5.1994C12.9835 5.87233 13.5285 6.41737 14.2015 6.41737H23.8477C24.5207 6.41737 25.0657 5.87233 25.0657 5.1994V3.37245H27.5504C28.2233 3.37245 28.7683 3.91749 28.7683 4.59042V11.7338C27.4152 10.7424 25.5413 10.8843 24.3532 12.0687L24.2375 12.1784C23.5889 12.8221 23.229 13.7008 23.2388 14.6143C23.2424 14.9602 23.3003 15.303 23.4093 15.6313C21.1494 13.1405 17.2982 12.9536 14.8074 15.2135C12.3161 17.4735 12.1291 21.3247 14.3897 23.816C14.6844 24.1406 15.0133 24.4329 15.3707 24.6869H9.28092L9.28089 15.4486ZM8.92768 11.6485L8.3187 11.0396C8.13479 10.855 8.03187 10.6054 8.03248 10.3453C8.03248 10.0871 8.1354 9.83925 8.3187 9.65716L8.42832 9.54754C8.81259 9.16693 9.43253 9.16693 9.8168 9.54754L11.0043 10.729C11.4793 11.2009 12.2466 11.2009 12.7216 10.729L13.9092 9.54754C14.2916 9.16388 14.9122 9.16327 15.2958 9.54571L15.2976 9.54754L15.4073 9.65716C15.5906 9.83925 15.6935 10.0871 15.6935 10.3453C15.6795 10.6047 15.5638 10.8477 15.3707 11.0213L11.8264 14.5656L8.92768 11.6485ZM15.4194 3.37246H22.6298V3.98144H15.4194V3.37246ZM32.9399 13.7861L33.0495 13.8957C33.2328 14.0778 33.3357 14.3256 33.3357 14.5838C33.3333 14.8487 33.223 15.1015 33.0312 15.2842L29.4869 18.8284L25.9426 15.2842C25.7587 15.0996 25.6558 14.85 25.6564 14.5899C25.6564 14.3317 25.7593 14.0839 25.9426 13.9018L26.0523 13.7922C26.4365 13.4115 27.0565 13.4115 27.4407 13.7922L28.6283 14.9736C29.1033 15.4455 29.8706 15.4455 30.3456 14.9736L30.8267 14.4986L31.527 13.7982C31.9009 13.4067 32.5215 13.3921 32.9131 13.766C32.9222 13.7745 32.9313 13.783 32.9399 13.7922V13.7861ZM15.3707 19.815C15.3707 17.7968 17.0064 16.1611 19.0246 16.1611C21.0428 16.1611 22.6785 17.7968 22.6785 19.815C22.6785 21.8332 21.0428 23.4689 19.0246 23.4689C17.0064 23.4689 15.3707 21.8332 15.3707 19.815ZM22.6785 24.6869C24.2119 23.5365 25.1144 21.7321 25.1144 19.815C25.1114 18.9746 24.9305 18.1446 24.5846 17.3791L28.6465 21.4349L28.7683 21.5384V24.6869H22.6785ZM28.7683 36.2575C28.7683 36.9305 28.2233 37.4755 27.5504 37.4755H25.6016V31.5075H28.7683V36.2575ZM9.28089 36.2575V31.5075H12.4476V37.4755H10.4989C9.82593 37.4755 9.28089 36.9305 9.28089 36.2575ZM4.16544 31.5075H6.84496V36.2575C6.84496 38.2757 8.48069 39.9114 10.4988 39.9114H27.5504C29.5685 39.9114 31.2042 38.2757 31.2042 36.2575V31.5075H33.8838C35.7674 31.5075 37.2941 29.9807 37.2941 28.0972C37.2941 26.2136 35.7673 24.6869 33.8838 24.6869H31.2042V20.5701L34.7729 17.0076C36.1053 15.6739 36.1053 13.512 34.7729 12.1784L34.6572 12.0687C33.7516 11.1687 32.4185 10.8514 31.2042 11.2466V4.59042C31.2042 2.57225 29.5685 0.936523 27.5503 0.936523H10.4988C8.48067 0.936523 6.84495 2.57225 6.84495 4.59042V7.67796C6.79136 7.71754 6.74082 7.76017 6.69271 7.80585L6.577 7.91547C5.24455 9.24914 5.24455 11.411 6.577 12.7447L6.84495 13.0127V24.6869H4.16543C2.28185 24.6869 0.755127 26.2136 0.755127 28.0972C0.755127 29.9807 2.28185 31.5075 4.16543 31.5075H4.16544Z" fill="#39475B"/>
</svg>
