<svg width="27" height="27" viewBox="0 0 27 27" fill="none" xmlns="http://www.w3.org/2000/svg">
<path fill-rule="evenodd" clip-rule="evenodd" d="M2.00342 14C2.00342 7.92487 6.93223 3 13.0122 3C19.0922 3 24.021 7.92487 24.021 14C24.021 20.0751 19.0922 25 13.0122 25C6.93223 25 2.00342 20.0751 2.00342 14Z" stroke="#9637F1" stroke-width="4"/>
<path fill-rule="evenodd" clip-rule="evenodd" d="M15.0156 5C15.0156 2.23858 17.2558 0 20.0192 0C22.7826 0 25.0227 2.23858 25.0227 5C25.0227 7.76142 22.7826 10 20.0192 10C17.2558 10 15.0156 7.76142 15.0156 5Z" fill="#9637F1"/>
<path fill-rule="evenodd" clip-rule="evenodd" d="M8.00368 14C8.00368 11.2386 10.2438 9 13.0072 9C15.7706 9 18.0108 11.2386 18.0108 14C18.0108 16.7614 15.7706 19 13.0072 19C10.2438 19 8.00368 16.7614 8.00368 14Z" fill="#9637F1"/>
</svg>
