<svg width="20" height="22" viewBox="0 0 20 22" fill="none" xmlns="http://www.w3.org/2000/svg">
<path fill-rule="evenodd" clip-rule="evenodd" d="M16 7.00231C16 5.41081 15.368 3.88431 14.243 2.75795C13.117 1.63259 11.591 1.00039 10 1.00039C8.409 1.00039 6.883 1.63259 5.757 2.75795C4.632 3.88431 4 5.4108 4 7.00231C4 14.0045 1 16.0052 1 16.0052H19C19 16.0052 16 14.0045 16 7.00231Z" stroke="#C9CED6" stroke-width="2" stroke-linecap="round" stroke-linejoin="round"/>
<path d="M11.73 20.0063C11.554 20.3085 11.302 20.5599 10.998 20.7334C10.695 20.9079 10.35 21.0007 10 21.0007C9.65002 21.0007 9.30502 20.9079 9.00202 20.7334C8.69802 20.5599 8.44602 20.3085 8.27002 20.0063" stroke="#C9CED6" stroke-width="2" stroke-linecap="round" stroke-linejoin="round"/>
</svg>
