<svg width="36" height="37" viewBox="0 0 36 37" fill="none" xmlns="http://www.w3.org/2000/svg">
<path fill-rule="evenodd" clip-rule="evenodd" d="M27.5097 14.5538C28.4136 16.3244 28.9409 18.2833 28.9409 20.393C28.9409 27.4753 23.1784 33.2391 16.1355 33.2391C9.09254 33.2391 3.29245 27.4753 3.29245 20.393C3.29245 13.3106 9.05486 7.54684 16.1355 7.54684C18.2446 7.54684 20.2407 8.07425 22.0109 8.97837L24.3083 6.68039C21.8979 5.24885 19.1108 4.42009 16.1355 4.42009C7.32236 4.42009 0.166423 11.5777 0.166423 20.393C0.166423 29.2082 7.32236 36.3659 16.1355 36.3659C24.9486 36.3659 32.0669 29.2082 32.0669 20.393C32.0669 17.4169 31.2383 14.6292 29.8071 12.2182L27.5097 14.5538Z" fill="#39475B"/>
<path fill-rule="evenodd" clip-rule="evenodd" d="M16.1391 13.5776C16.5157 13.5776 16.9299 13.6152 17.3064 13.6905L19.8293 11.1677C18.6997 10.7158 17.4571 10.4522 16.1391 10.4522C10.6415 10.4522 6.1983 14.8955 6.1983 20.3931C6.1983 25.8907 10.6415 30.3339 16.1391 30.3339C21.5991 30.3339 26.08 25.8907 26.08 20.3931C26.08 19.1128 25.8164 17.8702 25.3645 16.7029L22.8417 19.2258C22.917 19.6023 22.9547 19.9789 22.9547 20.3931C22.9547 24.1586 19.9046 27.2086 16.1391 27.2086C12.3737 27.2086 9.32363 24.1586 9.32363 20.3931C9.32363 16.6276 12.3737 13.5776 16.1391 13.5776Z" fill="#39475B"/>
<path fill-rule="evenodd" clip-rule="evenodd" d="M35.3032 4.99347L33.1565 3.86363C32.9305 3.75065 32.7799 3.60001 32.6669 3.37406L31.4994 1.18974C31.1228 0.474185 30.1813 0.361201 29.6164 0.926113L28.4489 2.09359C28.2229 2.31955 28.11 2.62085 28.11 2.92212V5.52071C28.11 5.93498 27.9593 6.34925 27.658 6.65054L17.5649 16.7436C16.774 16.4423 15.8701 16.3293 14.9286 16.6683C13.5351 17.1202 12.443 18.363 12.2547 19.7941C11.8781 22.4304 14.1377 24.69 16.774 24.2758C18.2051 24.0498 19.4479 22.9577 19.8622 21.5642C20.1635 20.6227 20.0505 19.7565 19.7492 18.9656L29.8424 8.87252C30.1437 8.57125 30.5579 8.42059 30.9722 8.42059H33.5708C33.8721 8.42059 34.1734 8.30761 34.3993 8.08165L35.5668 6.91415C36.1694 6.3116 36.0188 5.37006 35.3032 4.99346L35.3032 4.99347Z" fill="#39475B"/>
</svg>
