<svg width="18" height="18" viewBox="0 0 18 18" fill="none" xmlns="http://www.w3.org/2000/svg">
<path fill-rule="evenodd" clip-rule="evenodd" d="M6.68955 11.3208C4.12694 11.3208 2.05833 9.25214 2.05833 6.68953C2.05833 4.12692 4.12694 2.05831 6.68955 2.05831C9.25216 2.05831 11.3208 4.12692 11.3208 6.68953C11.3208 9.25214 9.25216 11.3208 6.68955 11.3208ZM12.8645 11.3208H12.0515L11.7633 11.0429C12.7719 9.86964 13.3791 8.34648 13.3791 6.68954C13.3791 2.99486 10.3842 0 6.68954 0C2.99486 0 0 2.99485 0 6.68954C0 10.3842 2.99485 13.3791 6.68954 13.3791C8.34649 13.3791 9.86964 12.7719 11.0429 11.7633L11.3207 12.0515V12.8645L16.4665 18L18 16.4666L12.8645 11.3208Z" fill="#D0D0DD"/>
</svg>
