<svg width="24" height="26" viewBox="0 0 24 26" fill="none" xmlns="http://www.w3.org/2000/svg">
<path fill-rule="evenodd" clip-rule="evenodd" d="M6.03976 12.6226C6.03976 9.4803 8.5904 6.92922 11.7327 6.92922C14.8745 6.92922 17.4256 9.48031 17.4256 12.6226C17.4256 15.7644 14.8745 18.3155 11.7327 18.3155C8.59041 18.3155 6.03976 15.7644 6.03976 12.6226ZM13.6202 25.0847C12.6024 25.2812 11.0641 25.3035 10.0151 25.1217C9.75677 25.0772 9.48833 24.8369 9.41513 24.5853L8.73474 22.2441C8.66154 21.9925 8.41833 21.682 8.19153 21.5512L5.7263 20.1281C5.49949 19.9973 5.10989 19.9459 4.85699 20.0137L2.53479 20.636C2.28194 20.7037 1.93942 20.596 1.77069 20.3961C1.12189 19.6278 0.3847 18.3479 0.04681 17.4302C-0.04363 17.1845 0.03001 16.8319 0.21092 16.6425L1.95709 14.8219C2.13801 14.633 2.28529 14.2669 2.28529 14.0048V11.1583C2.28529 10.8966 2.13508 10.5335 1.94995 10.3483L0.20924 8.60806C0.02411 8.42293 -0.05246 8.07327 0.03799 7.82754C0.11879 7.60833 0.42341 6.9553 0.78949 6.32163C1.16354 5.67408 1.58641 5.07195 1.74629 4.88134C1.91418 4.68064 2.25711 4.56831 2.51166 4.63099L4.99585 5.24111C5.24999 5.3034 5.64087 5.24784 5.86768 5.11698L8.33251 3.69355C8.5593 3.56268 8.79871 3.25089 8.86645 2.99801L9.49423 0.65479C9.56199 0.40191 9.82664 0.16121 10.085 0.11747C11.0338 -0.0424 12.4951 -0.04116 13.4692 0.13387C13.7267 0.18018 13.9909 0.42296 14.0587 0.67582L14.681 2.99801C14.7487 3.25089 14.9881 3.56268 15.2145 3.69355L17.6798 5.11698C17.9066 5.24784 18.2962 5.29917 18.549 5.23144L20.8713 4.60913C21.1241 4.54138 21.4666 4.64868 21.6353 4.84854C22.3119 5.64967 23.0643 6.97212 23.4072 7.93231C23.4951 8.17932 23.4165 8.52981 23.2313 8.71493L21.5975 10.3483C21.4123 10.5335 21.2621 10.8966 21.2621 11.1583V14.0048C21.2621 14.2669 21.4123 14.6296 21.5975 14.8147L23.2557 16.4729C23.4409 16.6581 23.5204 17.009 23.4333 17.256C23.3369 17.5295 23.0125 18.2372 22.6166 18.9235C22.2425 19.571 21.8196 20.1731 21.6598 20.3642C21.4914 20.5645 21.1494 20.6726 20.8965 20.6049L18.6904 20.0137C18.4371 19.9459 18.0479 19.9973 17.8211 20.1281L15.3559 21.5512C15.1291 21.682 14.8901 21.9938 14.8224 22.2467L14.2089 24.5365C14.1412 24.7893 13.8773 25.0351 13.6203 25.0847L13.6202 25.0847Z" fill="#C9CED6"/>
</svg>
