<svg width="21" height="13" viewBox="0 0 21 13" fill="none" xmlns="http://www.w3.org/2000/svg">
<path fill-rule="evenodd" clip-rule="evenodd" d="M19.0602 5.49999C18.4701 6.00302 17.7052 6.30921 16.8529 6.30921C16.0224 6.30921 15.2574 6.00302 14.6674 5.52186C14.3395 5.80618 14.0336 6.15611 13.7932 6.54978C14.7548 7.53396 15.4104 8.97742 15.5853 10.5959C15.9787 10.6177 16.4158 10.6396 16.8747 10.6396C18.7105 10.6396 19.9781 10.3115 20.5463 10.1366C20.743 10.071 20.896 9.87412 20.8742 9.65542C20.7867 7.90577 20.0874 6.3967 19.0602 5.5V5.49999Z" fill="#253858"/>
<path fill-rule="evenodd" clip-rule="evenodd" d="M14.4913 2.83845C14.4913 1.53526 15.5478 0.478815 16.851 0.478815C18.1542 0.478815 19.2106 1.53526 19.2106 2.83845C19.2106 4.14165 18.1542 5.19809 16.851 5.19809C15.5478 5.19809 14.4913 4.14165 14.4913 2.83845Z" fill="#253858"/>
<path fill-rule="evenodd" clip-rule="evenodd" d="M6.32343 5.49999C5.73351 6.00284 4.94697 6.28705 4.13857 6.28705C3.30833 6.28705 2.54363 5.98098 1.95372 5.49999C0.926837 6.37449 0.22768 7.88303 0.140287 9.63205C0.140287 9.85067 0.271377 10.0474 0.468012 10.113C1.03607 10.2879 2.32514 10.6159 4.13856 10.6159C4.59738 10.6159 5.03435 10.594 5.42762 10.5721C5.60241 8.95431 6.25787 7.51137 7.21921 6.52754C6.95703 6.13401 6.65115 5.78421 6.32342 5.49999H6.32343Z" fill="#253858"/>
<path fill-rule="evenodd" clip-rule="evenodd" d="M1.77773 2.83845C1.77773 1.53526 2.83418 0.478815 4.13737 0.478815C5.44056 0.478815 6.49701 1.53526 6.49701 2.83845C6.49701 4.14165 5.44056 5.19809 4.13737 5.19809C2.83418 5.19809 1.77773 4.14165 1.77773 2.83845Z" fill="#253858"/>
<path fill-rule="evenodd" clip-rule="evenodd" d="M12.6801 7.00523C12.0902 7.50825 11.3255 7.79257 10.4953 7.79257C9.66508 7.79257 8.9004 7.50826 8.31049 7.00523C7.28363 7.90192 6.58449 9.411 6.4971 11.1607C6.4971 11.3794 6.62818 11.5762 6.82481 11.6418C7.39287 11.8168 8.68191 12.1448 10.4953 12.1448C12.3087 12.1448 13.5977 11.8168 14.1658 11.6418C14.3624 11.5762 14.5154 11.3794 14.4935 11.1607C14.428 9.38913 13.707 7.88005 12.6801 7.00523H12.6801Z" fill="#253858"/>
<path fill-rule="evenodd" clip-rule="evenodd" d="M8.13454 4.34368C8.13454 3.04049 9.19099 1.98404 10.4942 1.98404C11.7974 1.98404 12.8538 3.04049 12.8538 4.34368C12.8538 5.64687 11.7974 6.70332 10.4942 6.70332C9.19099 6.70332 8.13454 5.64687 8.13454 4.34368Z" fill="#253858"/>
</svg>
